<svg width="36" height="36" viewBox="0 0 36 36" fill="none" xmlns="http://www.w3.org/2000/svg">
<g clip-path="url(#clip0_125_2030)">
<path d="M18 0.349609C18.359 0.349609 18.6504 0.641015 18.6504 1V3.36426C26.2239 3.69515 32.3039 9.77607 32.6348 17.3496H35C35.359 17.3496 35.6504 17.641 35.6504 18C35.6504 18.359 35.359 18.6504 35 18.6504H32.6348C32.3039 26.2239 26.2239 32.3039 18.6504 32.6348V35C18.6504 35.359 18.359 35.6504 18 35.6504C17.641 35.6504 17.3496 35.359 17.3496 35V32.6348C9.77608 32.3039 3.69615 26.2239 3.36523 18.6504H1C0.641015 18.6504 0.34961 18.359 0.349609 18C0.349609 17.641 0.641015 17.3496 1 17.3496H3.36523C3.69615 9.77607 9.77607 3.69515 17.3496 3.36426V1C17.3496 0.641015 17.641 0.349609 18 0.349609ZM18.6504 7C18.6504 7.35899 18.359 7.65039 18 7.65039C17.641 7.65039 17.3496 7.35899 17.3496 7V4.66602C10.4942 4.99485 4.99585 10.4942 4.66699 17.3496H7C7.35899 17.3496 7.65039 17.641 7.65039 18C7.65039 18.359 7.35899 18.6504 7 18.6504H4.66699C4.99585 25.5058 10.4942 31.0041 17.3496 31.333V29C17.3496 28.641 17.641 28.3496 18 28.3496C18.359 28.3496 18.6504 28.641 18.6504 29V31.333C25.5058 31.0041 31.0041 25.5058 31.333 18.6504H29C28.641 18.6504 28.3496 18.359 28.3496 18C28.3496 17.641 28.641 17.3496 29 17.3496H31.333C31.0041 10.4942 25.5058 4.99485 18.6504 4.66602V7ZM18 12.3496C21.1204 12.3496 23.6504 14.8796 23.6504 18C23.6504 21.1204 21.1204 23.6504 18 23.6504C14.8796 23.6504 12.3496 21.1204 12.3496 18C12.3496 14.8796 14.8796 12.3496 18 12.3496ZM18 13.6504C15.5976 13.6504 13.6504 15.5976 13.6504 18C13.6504 20.4024 15.5976 22.3496 18 22.3496C20.4024 22.3496 22.3496 20.4024 22.3496 18C22.3496 15.5976 20.4024 13.6504 18 13.6504Z" fill="white"/>
</g>
<defs>
<clipPath id="clip0_125_2030">
<rect width="36" height="36" fill="white"/>
</clipPath>
</defs>
</svg>
