<svg width="60" height="60" viewBox="0 0 60 60" fill="none" xmlns="http://www.w3.org/2000/svg">
<rect x="1" y="1" width="58" height="58" rx="29" fill="#6DFAFF" fill-opacity="0.2"/>
<rect x="1" y="1" width="58" height="58" rx="29" stroke="#6DFAFF" stroke-width="2" stroke-dasharray="4 4"/>
<mask id="path-2-outside-1_357_3104" maskUnits="userSpaceOnUse" x="8" y="8.00003" width="45" height="44" fill="black">
<rect fill="white" x="8" y="8.00003" width="45" height="44"/>
<path d="M24.8271 42.003H27.9453V32.0547H17.9971V35.1729C17.9971 35.7195 17.3687 36.028 16.9365 35.6934L10.2549 30.5196C9.91511 30.2562 9.91492 29.7427 10.2549 29.4795L16.9365 24.3067C17.3687 23.9721 17.9969 24.2797 17.9971 24.8262V27.9444H27.9453V17.9971H24.8271C24.2805 17.9971 23.972 17.3688 24.3066 16.9366L29.4805 10.2549C29.7438 9.91505 30.2573 9.91492 30.5205 10.2549L35.6934 16.9366C36.028 17.3688 35.7204 17.9971 35.1738 17.9971H32.0557V27.9444H42.0029V24.8262C42.0031 24.2797 42.6313 23.9721 43.0635 24.3067L49.7451 29.4795C50.0852 29.7428 50.0852 30.2563 49.7451 30.5196L43.0635 35.6934C42.6313 36.028 42.0029 35.7195 42.0029 35.1729V32.0547H32.0557V42.003H35.1738C35.7204 42.003 36.028 42.6303 35.6934 43.0625L30.5205 49.7451C30.2573 50.0849 29.7438 50.0847 29.4805 49.7451L24.3066 43.0625C23.9722 42.6303 24.2806 42.003 24.8271 42.003Z"/>
</mask>
<path d="M24.8271 42.003H27.9453V32.0547H17.9971V35.1729C17.9971 35.7195 17.3687 36.028 16.9365 35.6934L10.2549 30.5196C9.91511 30.2562 9.91492 29.7427 10.2549 29.4795L16.9365 24.3067C17.3687 23.9721 17.9969 24.2797 17.9971 24.8262V27.9444H27.9453V17.9971H24.8271C24.2805 17.9971 23.972 17.3688 24.3066 16.9366L29.4805 10.2549C29.7438 9.91505 30.2573 9.91492 30.5205 10.2549L35.6934 16.9366C36.028 17.3688 35.7204 17.9971 35.1738 17.9971H32.0557V27.9444H42.0029V24.8262C42.0031 24.2797 42.6313 23.9721 43.0635 24.3067L49.7451 29.4795C50.0852 29.7428 50.0852 30.2563 49.7451 30.5196L43.0635 35.6934C42.6313 36.028 42.0029 35.7195 42.0029 35.1729V32.0547H32.0557V42.003H35.1738C35.7204 42.003 36.028 42.6303 35.6934 43.0625L30.5205 49.7451C30.2573 50.0849 29.7438 50.0847 29.4805 49.7451L24.3066 43.0625C23.9722 42.6303 24.2806 42.003 24.8271 42.003Z" fill="white"/>
<path d="M27.9453 42.003V44.003H29.9453V42.003H27.9453ZM27.9453 32.0547H29.9453V30.0547H27.9453V32.0547ZM17.9971 32.0547V30.0547H15.9971V32.0547H17.9971ZM16.9365 35.6934L15.712 37.2747L15.7121 37.2748L16.9365 35.6934ZM10.2549 30.5196L9.02963 32.1003L9.0304 32.1009L10.2549 30.5196ZM10.2549 29.4795L9.03054 27.8981L9.03047 27.8981L10.2549 29.4795ZM16.9365 24.3067L18.1609 25.8881L18.1609 25.8881L16.9365 24.3067ZM17.9971 24.8262H19.9971V24.8256L17.9971 24.8262ZM17.9971 27.9444H15.9971V29.9444H17.9971V27.9444ZM27.9453 27.9444V29.9444H29.9453V27.9444H27.9453ZM27.9453 17.9971H29.9453V15.9971H27.9453V17.9971ZM24.3066 16.9366L22.7253 15.7121L22.7253 15.7121L24.3066 16.9366ZM29.4805 10.2549L27.8995 9.02991L27.8991 9.03043L29.4805 10.2549ZM30.5205 10.2549L32.102 9.03057L32.1019 9.03049L30.5205 10.2549ZM35.6934 16.9366L34.1119 18.1609L34.112 18.161L35.6934 16.9366ZM35.1738 17.9971V19.9971H35.174L35.1738 17.9971ZM32.0557 17.9971V15.9971H30.0557V17.9971H32.0557ZM32.0557 27.9444H30.0557V29.9444H32.0557V27.9444ZM42.0029 27.9444V29.9444H44.0029V27.9444H42.0029ZM42.0029 24.8262L40.0029 24.8256V24.8262H42.0029ZM43.0635 24.3067L41.8391 25.8881L41.8391 25.8881L43.0635 24.3067ZM49.7451 29.4795L50.9695 27.8981L50.9695 27.8981L49.7451 29.4795ZM49.7451 30.5196L48.5207 28.9382L48.5206 28.9382L49.7451 30.5196ZM43.0635 35.6934L44.2878 37.2749L44.288 37.2747L43.0635 35.6934ZM42.0029 32.0547H44.0029V30.0547H42.0029V32.0547ZM32.0557 32.0547V30.0547H30.0557V32.0547H32.0557ZM32.0557 42.003H30.0557V44.003H32.0557V42.003ZM35.1738 42.003L35.174 40.003H35.1738V42.003ZM35.6934 43.0625L34.112 41.8381L34.1118 41.8383L35.6934 43.0625ZM30.5205 49.7451L32.1014 50.9702L32.102 50.9694L30.5205 49.7451ZM29.4805 49.7451L27.899 50.9695L27.9 50.9708L29.4805 49.7451ZM24.3066 43.0625L22.7248 44.2864L22.7252 44.2869L24.3066 43.0625ZM24.8271 42.003V44.003H27.9453V42.003V40.003H24.8271V42.003ZM27.9453 42.003H29.9453V32.0547H27.9453H25.9453V42.003H27.9453ZM27.9453 32.0547V30.0547H17.9971V32.0547V34.0547H27.9453V32.0547ZM17.9971 32.0547H15.9971V35.1729H17.9971H19.9971V32.0547H17.9971ZM17.9971 35.1729H15.9971C15.9971 34.0594 17.2771 33.4277 18.1609 34.112L16.9365 35.6934L15.7121 37.2748C17.4604 38.6284 19.9971 37.3796 19.9971 35.1729H17.9971ZM16.9365 35.6934L18.161 34.1121L11.4794 28.9382L10.2549 30.5196L9.0304 32.1009L15.712 37.2747L16.9365 35.6934ZM10.2549 30.5196L11.4801 28.9388C12.1724 29.4754 12.1744 30.5227 11.4793 31.0609L10.2549 29.4795L9.03047 27.8981C7.65539 28.9628 7.65785 31.037 9.02963 32.1003L10.2549 30.5196ZM10.2549 29.4795L11.4792 31.061L18.1609 25.8881L16.9365 24.3067L15.7122 22.7252L9.03054 27.8981L10.2549 29.4795ZM16.9365 24.3067L18.1609 25.8881C17.2807 26.5696 15.9974 25.9445 15.9971 24.8268L17.9971 24.8262L19.9971 24.8256C19.9964 22.6149 17.4566 21.3746 15.7121 22.7253L16.9365 24.3067ZM17.9971 24.8262H15.9971V27.9444H17.9971H19.9971V24.8262H17.9971ZM17.9971 27.9444V29.9444H27.9453V27.9444V25.9444H17.9971V27.9444ZM27.9453 27.9444H29.9453V17.9971H27.9453H25.9453V27.9444H27.9453ZM27.9453 17.9971V15.9971H24.8271V17.9971V19.9971H27.9453V17.9971ZM24.8271 17.9971V15.9971C25.9406 15.9971 26.5724 17.2771 25.888 18.161L24.3066 16.9366L22.7253 15.7121C21.3716 17.4604 22.6204 19.9971 24.8271 19.9971V17.9971ZM24.3066 16.9366L25.888 18.161L31.0618 11.4794L29.4805 10.2549L27.8991 9.03043L22.7253 15.7121L24.3066 16.9366ZM29.4805 10.2549L31.0614 11.4799C30.5246 12.1727 29.4771 12.1741 28.9391 11.4793L30.5205 10.2549L32.1019 9.03049C31.0374 7.65571 28.963 7.6574 27.8995 9.02991L29.4805 10.2549ZM30.5205 10.2549L28.9391 11.4793L34.1119 18.1609L35.6934 16.9366L37.2748 15.7122L32.102 9.03057L30.5205 10.2549ZM35.6934 16.9366L34.112 18.161C33.4309 17.2814 34.0549 15.9972 35.1737 15.9971L35.1738 17.9971L35.174 19.9971C37.3859 19.9969 38.6251 17.4561 37.2747 15.7121L35.6934 16.9366ZM35.1738 17.9971V15.9971H32.0557V17.9971V19.9971H35.1738V17.9971ZM32.0557 17.9971H30.0557V27.9444H32.0557H34.0557V17.9971H32.0557ZM32.0557 27.9444V29.9444H42.0029V27.9444V25.9444H32.0557V27.9444ZM42.0029 27.9444H44.0029V24.8262H42.0029H40.0029V27.9444H42.0029ZM42.0029 24.8262L44.0029 24.8268C44.0026 25.9445 42.7193 26.5696 41.8391 25.8881L43.0635 24.3067L44.2879 22.7253C42.5433 21.3746 40.0036 22.6149 40.0029 24.8256L42.0029 24.8262ZM43.0635 24.3067L41.8391 25.8881L48.5208 31.061L49.7451 29.4795L50.9695 27.8981L44.2878 22.7252L43.0635 24.3067ZM49.7451 29.4795L48.5207 31.0609C47.8266 30.5235 47.8267 29.4755 48.5207 28.9382L49.7451 30.5196L50.9695 32.101C52.3437 31.037 52.3437 28.9621 50.9695 27.8981L49.7451 29.4795ZM49.7451 30.5196L48.5206 28.9382L41.839 34.1121L43.0635 35.6934L44.288 37.2747L50.9696 32.1009L49.7451 30.5196ZM43.0635 35.6934L41.8392 34.1119C42.7228 33.4278 44.0029 34.0592 44.0029 35.1729H42.0029H40.0029C40.0029 37.3798 42.5397 38.6281 44.2878 37.2749L43.0635 35.6934ZM42.0029 35.1729H44.0029V32.0547H42.0029H40.0029V35.1729H42.0029ZM42.0029 32.0547V30.0547H32.0557V32.0547V34.0547H42.0029V32.0547ZM32.0557 32.0547H30.0557V42.003H32.0557H34.0557V32.0547H32.0557ZM32.0557 42.003V44.003H35.1738V42.003V40.003H32.0557V42.003ZM35.1738 42.003L35.1737 44.003C34.0577 44.0029 33.4292 42.7199 34.112 41.8381L35.6934 43.0625L37.2747 44.2869C38.6267 42.5408 37.3832 40.0031 35.174 40.003L35.1738 42.003ZM35.6934 43.0625L34.1118 41.8383L28.939 48.5209L30.5205 49.7451L32.102 50.9694L37.2749 44.2868L35.6934 43.0625ZM30.5205 49.7451L28.9396 48.5201C29.4776 47.8258 30.5241 47.8273 31.0609 48.5195L29.4805 49.7451L27.9 50.9708C28.9635 52.3421 31.037 52.3439 32.1014 50.9702L30.5205 49.7451ZM29.4805 49.7451L31.0619 48.5208L25.8881 41.8382L24.3066 43.0625L22.7252 44.2869L27.899 50.9695L29.4805 49.7451ZM24.3066 43.0625L25.8885 41.8387C26.5731 42.7235 25.9392 44.003 24.8271 44.003V42.003V40.003C22.622 40.003 21.3714 42.5371 22.7248 44.2864L24.3066 43.0625Z" fill="#3B3B3B" mask="url(#path-2-outside-1_357_3104)"/>
</svg>
