<svg width="134" height="96" viewBox="0 0 134 96" fill="none" xmlns="http://www.w3.org/2000/svg">
<g clip-path="url(#clip0_6_32)">
<path d="M133.59 42.5317C133.654 42.5698 133.727 42.5894 133.801 42.5884C133.874 42.5874 133.947 42.5658 134.009 42.5259C134.072 42.4861 134.123 42.4295 134.156 42.3623C134.19 42.295 134.205 42.2197 134.2 42.1443C131.713 31.9409 126.511 22.6379 119.17 15.2691C111.231 7.69306 101.053 2.71701 86.5172 0.665749C71.9814 -1.38551 57.7769 1.16554 45.6156 10.2436C30.4465 21.6309 21.3696 43.6723 31.9771 67.4191C21.47 64.6257 10.5041 57.8823 1.01226 49.0597C0.948419 49.0215 0.875656 49.0019 0.801803 49.0029C0.727944 49.0039 0.655786 49.0255 0.593093 49.0654C0.530395 49.1052 0.479529 49.1618 0.445968 49.229C0.412408 49.2963 0.39742 49.3717 0.402619 49.447C2.42546 60.4708 8.74061 68.4901 17.1371 76.6238C25.5337 84.7574 37.809 90.513 47.5972 92.4302C57.3854 94.3473 75.6298 96.8813 91.9561 85.451C108.283 74.0208 117.192 42.8932 102.099 22.7234C112.463 25.5038 125.081 32.3229 133.59 42.5317Z" fill="#36367A"/>
<ellipse cx="68.9033" cy="48.0598" rx="35.8516" ry="36.8271" fill="#36367A"/>
<g filter="url(#filter0_d_6_32)">
<path d="M69.3275 26.3652C71.2277 26.4021 72.9306 26.7151 74.4364 27.3043C75.978 27.8936 77.2866 28.6853 78.3621 29.6797C79.4735 30.674 80.316 31.8341 80.8897 33.1598C81.4633 34.4856 81.7322 35.9219 81.6963 37.4686C81.6963 39.8255 81.1048 41.7406 79.9217 43.2136C78.7744 44.6499 77.3583 45.7915 75.6733 46.6386C78.0395 47.5592 79.7424 48.8298 80.7821 50.4502C81.8577 52.0337 82.3954 54.0408 82.3954 56.4714C82.3596 58.5705 81.9473 60.4303 81.1586 62.0507C80.3698 63.6711 79.3301 65.0337 78.0395 66.1385C76.7488 67.2065 75.243 68.0167 73.5222 68.5691C71.8371 69.1215 70.0446 69.3977 68.1444 69.3977C66.1009 69.3977 64.3083 69.1399 62.7667 68.6243C61.2251 68.1088 59.8627 67.3722 58.6796 66.4147C57.5324 65.4204 56.5644 64.2235 55.7757 62.8241C54.9869 61.3878 54.3237 59.7674 53.7859 57.9629L60.3467 55.3113C60.5618 56.1952 60.9024 57.079 61.3685 57.9629C61.8346 58.8467 62.4082 59.6569 63.0894 60.3935C63.7705 61.0932 64.5234 61.664 65.348 62.1059C66.1726 62.5479 67.0689 62.7688 68.0369 62.7688C69.22 62.7688 70.2418 62.6031 71.1022 62.2717C71.9985 61.9034 72.7334 61.4431 73.3071 60.8906C73.9165 60.3014 74.3647 59.6385 74.6515 58.902C74.9383 58.1654 75.0817 57.4105 75.0817 56.6371C75.0817 55.6796 74.9742 54.7958 74.7591 53.9856C74.5798 53.1754 74.1675 52.4941 73.5222 51.9417C72.8768 51.3524 71.9268 50.9105 70.672 50.6159C69.453 50.2844 67.7859 50.1187 65.6707 50.1187V44.5947C67.4633 44.5578 68.9152 44.3921 70.0266 44.0975C71.1739 43.8029 72.0702 43.3978 72.7155 42.8822C73.3608 42.3298 73.809 41.7037 74.0599 41.004C74.3109 40.2675 74.4364 39.4573 74.4364 38.5734C74.4722 36.6584 73.9882 35.2406 72.9844 34.3199C72.0164 33.3624 70.654 32.8836 68.8973 32.8836C67.7501 32.8836 66.7821 33.0678 65.9933 33.436C65.2046 33.8043 64.5414 34.3015 64.0036 34.9275C63.5017 35.5536 63.0894 36.3086 62.7667 37.1924C62.4799 38.0394 62.2469 38.9601 62.0676 39.9544C60.9203 39.7703 59.7552 39.5678 58.5721 39.3468C57.4248 39.089 56.2596 38.868 55.0765 38.6839C55.8653 34.4488 57.4786 31.3369 59.9165 29.3482C62.3903 27.3596 65.5273 26.3652 69.3275 26.3652Z" fill="white"/>
</g>
</g>
<defs>
<filter id="filter0_d_6_32" x="43.7859" y="16.3652" width="48.6096" height="63.0325" filterUnits="userSpaceOnUse" color-interpolation-filters="sRGB">
<feFlood flood-opacity="0" result="BackgroundImageFix"/>
<feColorMatrix in="SourceAlpha" type="matrix" values="0 0 0 0 0 0 0 0 0 0 0 0 0 0 0 0 0 0 127 0" result="hardAlpha"/>
<feOffset/>
<feGaussianBlur stdDeviation="5"/>
<feComposite in2="hardAlpha" operator="out"/>
<feColorMatrix type="matrix" values="0 0 0 0 0 0 0 0 0 0 0 0 0 0 0 0 0 0 0.15 0"/>
<feBlend mode="normal" in2="BackgroundImageFix" result="effect1_dropShadow_6_32"/>
<feBlend mode="normal" in="SourceGraphic" in2="effect1_dropShadow_6_32" result="shape"/>
</filter>
<clipPath id="clip0_6_32">
<rect width="134" height="96" fill="white"/>
</clipPath>
</defs>
</svg>
